# AST/ASF file generated using VICON BodyLanguage
# -----------------------------------------------
:version 1.10
:name VICON
:units
  mass 1.0
  length 0.45
  angle deg
:documentation
   .ast/.asf automatically generated from VICON data using
   VICON BodyBuilder and BodyLanguage model FoxedUp or BRILLIANT.MOD
:root
   order TX TY TZ RX RY RZ
   axis XYZ
   position 0 0 0  
   orientation 0 0 0 
:bonedata
  begin
     id 1 
     name lhipjoint
     direction 0.621036 -0.695554 0.361275 
     length 2.46325 
     axis 0 0 0  XYZ
  end
  begin
     id 2 
     name lfemur
     direction 0.34202 -0.939693 0  
     length 6.54784  
     axis 0 0 20  XYZ
    dof rx ry rz
    limits (-160.0 20.0)
           (-70.0 70.0)
           (-60.0 70.0)
  end
  begin
     id 3 
     name ltibia
     direction 0.34202 -0.939693 0   
     length 7.84737   
     axis 0 0 20   XYZ
    dof rx
    limits (-10.0 170.0)
  end
  begin
     id 4 
     name lfoot
     direction 0.0790693 -0.217241 0.97291   
     length 2.59747   
     axis -90 7.62852e-016 20   XYZ
    dof rx rz
    limits (-45.0 90.0)
           (-70.0 20.0)
  end
  begin
     id 5 
     name ltoes
     direction 1.53572e-011 -4.21898e-011 1   
     length 1.29919   
     axis -90 7.62852e-016 20   XYZ
    dof rx
    limits (-90.0 20.0)
  end
  begin
     id 6 
     name rhipjoint
     direction -0.602353 -0.708375 0.367935   
     length 2.41867  
     axis 0 0 0  XYZ 
  end
  begin
     id 7 
     name rfemur
     direction -0.34202 -0.939693 0   
     length 6.92065   
     axis 0 0 -20   XYZ
    dof rx ry rz
    limits (-160.0 20.0)
           (-70.0 70.0)
           (-70.0 60.0)
  end
  begin
     id 8 
     name rtibia
     direction -0.34202 -0.939693 0   
     length 7.88883   
     axis 0 0 -20   XYZ
    dof rx
    limits (-10.0 170.0)
 end
 begin
     id 9 
     name rfoot
     direction -0.0768692 -0.211196 0.974416   
     length 2.43714  
     axis -90 -7.62852e-016 -20   XYZ
    dof rx rz
    limits (-45.0 90.0)
           (-20.0 70.0)
  end
  begin
     id 10 
     name rtoes
     direction -1.53575e-011 -4.21933e-011 1   
     length 1.22113   
     axis -90 -7.62852e-016 -20   XYZ
    dof rx
    limits (-90.0 20.0)
  end
  begin
     id 11 
     name lowerback
     direction 0.0197937 0.98943 -0.143655   
     length 2.16931   
     axis 0 0 0   XYZ
    dof rx ry rz
    limits (-20.0 45.0)
           (-30.0 30.0)
           (-30.0 30.0)
  end
  begin
     id 12 
     name upperback
     direction -0.00183968 0.999975 0.00684288   
     length 2.17221   
     axis 0 0 0   XYZ
    dof rx ry rz
    limits (-20.0 45.0)
           (-30.0 30.0)
           (-30.0 30.0)
  end
  begin
     id 13 
     name thorax
     direction -0.00950244 0.997208 0.0740685   
     length 2.22549   
     axis 0 0 0   XYZ
    dof rx ry rz
    limits (-20.0 45.0)
           (-30.0 30.0)
           (-30.0 30.0)
  end
  begin
     id 14 
     name lowerneck
     direction 0.0218238 0.996215 0.0841425   
     length 1.77269   
     axis 0 0 0   XYZ
    dof rx ry rz
    limits (-20.0 45.0)
           (-30.0 30.0)
           (-30.0 30.0)
  end
  begin
     id 15 
     name upperneck
     direction -0.00430652 0.994214 -0.107332   
     length 1.76534   
     axis 0 0 0   XYZ
    dof rx ry rz
    limits (-20.0 45.0)
           (-30.0 30.0)
           (-30.0 30.0)
  end
  begin
     id 16
     name head
     direction -0.00328946 0.998959 -0.0454998  
     length 1.82634  
     axis 0 0 0   XYZ
    dof rx ry rz
    limits (-20.0 45.0)
           (-30.0 30.0)
           (-30.0 30.0)
  end
  begin
     id 17 
     name lclavicle
     direction 0.970962 0.239191 0.00450212  
     length 3.84872  
     axis 0 0 0   XYZ
    dof ry rz
    limits (-20.0 10.0)
           (0.0 20.0)
  end
  begin
     id 18 
     name lhumerus
     direction 1 -4.48966e-011 5.74696e-028   
     length 5.22771   
     axis 180 -30 -90   XYZ
    dof rx ry rz
    limits (-60.0 90.0)
           (-90.0 90.0)
           (-90.0 90.0)
  end
  begin
     id 19
     name lradius
     direction 1 -4.4896e-011 4.25109e-027   
     length 3.45251   
     axis 180 -30 -90   XYZ
    dof rx
    limits (-10.0 170.0)
  end
  begin
     id 20
     name lwrist
     direction 1 -4.48971e-011 1.15382e-027   
     length 1.72626   
     axis -5.52449e-016 90 90   XYZ
    dof ry
    limits (-180.0 0.0)
 end
  begin
     id 21 
     name lhand
     direction 1 -4.49034e-011 2.30765e-027   
     length 0.552119   
     axis -1.47248e-015 90 90   XYZ
    dof rx rz
    limits (-90.0 90.0)
           (-45.0 45.0)
  end
  begin
     id 22 
     name lfingers
     direction 1 -4.48951e-011 4.61529e-027   
     length 0.445133   
     axis -2.94495e-015 90 90   XYZ
    dof rx
    limits (0.0 90.0)
  end
  begin
     id 23
     name lthumb
     direction 0.707107 -6.34991e-011 0.707107   
     length 0.639124   
     axis -90 45 2.85299e-015   XYZ
    dof rx rz
    limits (-45.0 45.0)
           (-45.0 45.0)
  end
  begin
     id 24 
     name rclavicle
     direction -0.97424 0.222511 -0.0366699   
     length 3.73439  
     axis 0 0 0   XYZ 
    dof ry rz
    limits (-10.0 20.0)
           (-20.0 0.0)
  end
  begin
     id 25 
     name rhumerus
     direction -1 -4.48956e-011 -4.97258e-028  
     length 5.2398   
     axis 180 30 90   XYZ
    dof rx ry rz
    limits (-90.0 60.0)
           (-90.0 90.0)
           (-90.0 90.0)
  end
  begin
     id 26 
     name rradius
     direction -1 -4.4897e-011 -1.72611e-027   
     length 3.48042   
     axis 180 30 90   XYZ
    dof rx
    limits (-10.0 170.0)
  end
  begin
     id 27 
     name rwrist
     direction -1 -4.48976e-011 1.15382e-027   
     length 1.74021   
     axis -5.52449e-016 -90 -90   XYZ
    dof ry
    limits (-180.0 0.0)
  end
  begin
     id 28
     name rhand
     direction -1 -4.48963e-011 2.30765e-027   
     length 0.618713   
     axis -1.47248e-015 -90 -90   XYZ
    dof rx rz
    limits (-90.0 90.0)
           (-45.0 45.0)
  end
  begin
     id 29
     name rfingers
     direction -1 -4.4888e-011 4.61529e-027   
     length 0.498823   
     axis -2.94495e-015 -90 -90   XYZ
    dof rx
    limits (0.0 90.0)
  end
  begin
     id 30
     name rthumb
     direction -0.707107 -6.34968e-011 0.707107   
     length 0.716213   
     axis -90 -45 -2.85299e-015   XYZ
    dof rx rz
    limits (-45.0 45.0)
           (-45.0 45.0)
  end
:hierarchy
  begin
    root lhipjoint rhipjoint lowerback
    lhipjoint lfemur
    lfemur ltibia
    ltibia lfoot
    lfoot ltoes
    rhipjoint rfemur
    rfemur rtibia
    rtibia rfoot
    rfoot rtoes
    lowerback upperback
    upperback thorax
    thorax lowerneck lclavicle rclavicle
    lowerneck upperneck
    upperneck head
    lclavicle lhumerus
    lhumerus lradius
    lradius lwrist
    lwrist lhand lthumb
    lhand lfingers
    rclavicle rhumerus
    rhumerus rradius
    rradius rwrist
    rwrist rhand rthumb
    rhand rfingers
  end

#!OML:ASF G:\JayActor3\Patient Classification 1\Patient 1\Session 5\male.ASF
:FULLY-SPECIFIED
:DEGREES
1
root 48.674 16.3526 -5.07798 -117.749 86.9736 -116.963
lowerback -1.35595 -0.992062 2.03216
upperback 1.70703 -1.37106 0.16048
thorax 2.46775 -0.644846 -1.02076
lowerneck -6.62065 -0.43425 1.36095
upperneck 5.49331 -0.820726 1.80872
head 2.91264 -0.305889 0.310319
rclavicle -1.16786e-015 -7.95139e-016
rhumerus -31.1792 -7.50213 -86.0532
rradius 24.9631
rwrist 3.53611
rhand -19.1502 -3.06565
rfingers 7.12502
rthumb 7.16013 -32.9245
lclavicle -1.16786e-015 -7.95139e-016
lhumerus -31.2849 0.26541 87.1486
lradius 23.7743
lwrist 15.8532
lhand -17.0438 13.4353
lfingers 7.12502
lthumb 9.19305 43.2149
rfemur -7.17848 4.10288 25.266
rtibia 31.9252
rfoot -23.8909 -12.9915
rtoes 6.19087
lfemur 4.99701 3.75197 -17.4956
ltibia 12.0683
lfoot -13.8109 6.98443
ltoes -6.36166
2
root 48.6736 16.3527 -5.07661 -118.491 87.0023 -117.7
lowerback -1.35997 -0.999552 1.96945
upperback 1.70933 -1.37955 0.156521
thorax 2.4734 -0.650157 -0.990113
lowerneck -6.62353 -0.427692 1.37231
upperneck 5.48627 -0.811714 1.78893
head 2.91059 -0.302017 0.302342
rclavicle 4.32978e-015 -5.1684e-015
rhumerus -31.1789 -7.51024 -86.0388
rradius 24.9638
rwrist 3.5783
rhand -19.1587 -2.93035
rfingers 7.12502
rthumb 7.15201 -32.7895
lclavicle 4.32978e-015 -5.1684e-015
lhumerus -31.2863 0.235614 87.163
lradius 23.7874
lwrist 15.8629
lhand -17.0166 13.4638
lfingers 7.12502
lthumb 9.21932 43.2422
rfemur -7.17205 4.11705 25.2274
rtibia 31.9267
rfoot -23.9219 -13.0246
rtoes 6.20851
lfemur 4.99397 3.75511 -17.5343
ltibia 12.0709
lfoot -13.8305 6.94426
ltoes -6.29489
3
root 48.6734 16.3525 -5.07538 -117.806 86.962 -117.015
lowerback -1.37063 -0.994454 2.01295
upperback 1.70913 -1.37445 0.175283
thorax 2.47885 -0.646888 -0.995249
lowerneck -6.63723 -0.422078 1.37328
upperneck 5.50461 -0.805653 1.80068
head 2.91949 -0.298207 0.306254
rclavicle 3.68373e-015 -2.98177e-015
rhumerus -31.1638 -7.5112 -86.0273
rradius 24.9462
rwrist 3.61092
rhand -19.1775 -3.04433
rfingers 7.12502
rthumb 7.13379 -32.9041
lclavicle 3.68373e-015 -2.98177e-015
lhumerus -31.2826 0.235796 87.1704
lradius 23.7665
lwrist 15.8712
lhand -17.0411 13.4036
lfingers 7.12502
lthumb 9.1957 43.1831
rfemur -7.17442 4.14861 25.2946
rtibia 31.9221
rfoot -23.9294 -13.0499
rtoes 6.24329
lfemur 4.98856 3.76787 -17.47
ltibia 12.0796
lfoot -13.7877 6.96747
ltoes -6.49593
4
root 48.6726 16.353 -5.07514 -118.305 86.9683 -117.515
lowerback -1.3586 -0.995685 2.00731
upperback 1.69437 -1.37542 0.166831
thorax 2.45678 -0.647795 -1.00038
lowerneck -6.63413 -0.43515 1.37629
upperneck 5.52346 -0.823533 1.79879
head 2.92535 -0.306845 0.304338
rclavicle -3.93842e-015 4.37326e-015
rhumerus -31.184 -7.50089 -86.0202
rradius 24.944
rwrist 3.59817
rhand -19.1057 -3.76561
rfingers 7.12502
rthumb 7.20313 -33.623
lclavicle -3.93842e-015 4.37326e-015
lhumerus -31.3023 0.198687 87.1833
lradius 23.7783
lwrist 15.8922
lhand -17.0387 13.4523
lfingers 7.12502
lthumb 9.198 43.2317
rfemur -7.17413 4.11654 25.2717
rtibia 31.9208
rfoot -23.9195 -13.0332
rtoes 6.2194
lfemur 4.9795 3.75431 -17.489
ltibia 12.0865
lfoot -13.806 6.94812
ltoes -6.38915
5
root 48.6724 16.3531 -5.07445 -118.432 86.9657 -117.641
lowerback -1.35864 -0.993681 2.01065
upperback 1.68797 -1.37278 0.165997
thorax 2.4502 -0.646551 -1.00295
lowerneck -6.63284 -0.442557 1.37628
upperneck 5.53113 -0.8337 1.80147
head 2.92776 -0.311686 0.304756
rclavicle 1.29769e-014 -7.55382e-015
rhumerus -31.1903 -7.49549 -86.012
rradius 24.9384
rwrist 3.6031
rhand -19.0451 -4.411
rfingers 7.12502
rthumb 7.26161 -34.2664
lclavicle 1.29769e-014 -7.55382e-015
lhumerus -31.3105 0.171918 87.1946
lradius 23.7797
lwrist 15.9076
lhand -17.0388 13.4591
lfingers 7.12502
lthumb 9.19789 43.2385
rfemur -7.17078 4.11179 25.2727
rtibia 31.9157
rfoot -23.9182 -13.0335
rtoes 6.2264
lfemur 4.96723 3.75358 -17.4865
ltibia 12.1066
lfoot -13.8122 6.9409
ltoes -6.38404
6
root 48.6721 16.3533 -5.07376 -118.547 86.9626 -117.755
lowerback -1.36094 -0.991068 2.01638
upperback 1.6824 -1.36945 0.164774
thorax 2.44571 -0.644882 -1.00728
lowerneck -6.63348 -0.450947 1.37433
upperneck 5.5378 -0.845207 1.80692
head 2.93023 -0.317131 0.306341
rclavicle 2.60905e-015 -2.18663e-015
rhumerus -31.1956 -7.48684 -86.0058
rradius 24.935
rwrist 3.60167
rhand -18.9757 -5.12586
rfingers 7.12502
rthumb 7.32857 -34.9789
lclavicle 2.60905e-015 -2.18663e-015
lhumerus -31.3162 0.147267 87.205
lradius 23.7806
lwrist 15.9227
lhand -17.0403 13.4628
lfingers 7.12502
lthumb 9.19647 43.2423
rfemur -7.17067 4.10594 25.2742
rtibia 31.9146
rfoot -23.9176 -13.0295
rtoes 6.23454
lfemur 4.96357 3.75362 -17.4829
ltibia 12.1084
lfoot -13.8105 6.9331
ltoes -6.37218
